<svg xmlns="http://www.w3.org/2000/svg" viewBox="0 0 35 35" height="35" width="35"><title>circle-11.svg</title><rect fill="none" x="0" y="0" width="35" height="35"></rect><rect x="7" y="7" rx="13.5" ry="13.5" width="21" height="21" stroke="#0e0037" style="stroke-linejoin:round;stroke-miterlimit:4;" fill="#0e0037" stroke-width="8"></rect><rect x="7" y="7" width="21" height="21" rx="13.5" ry="13.5" fill="#0e0037"></rect><path fill="#19e1c5" transform="translate(12 12)" d="M10,5.5C10,7.9853,7.9853,10,5.5,10S1,7.9853,1,5.5S3.0147,1,5.5,1S10,3.0147,10,5.5z" style="stroke-linejoin:round;stroke-miterlimit:4;" stroke="#19e1c5" stroke-width="6"></path><path fill="#0e0037" transform="translate(12 12)" d="M10,5.5C10,7.9853,7.9853,10,5.5,10S1,7.9853,1,5.5S3.0147,1,5.5,1S10,3.0147,10,5.5z"></path></svg>