<svg xmlns="http://www.w3.org/2000/svg" viewBox="0 0 39 39" height="39" width="39"><title>circle-15.svg</title><rect fill="none" x="0" y="0" width="39" height="39"></rect><rect x="7" y="7" rx="15.5" ry="15.5" width="25" height="25" stroke="#0e0037" style="stroke-linejoin:round;stroke-miterlimit:4;" fill="#0e0037" stroke-width="8"></rect><rect x="7" y="7" width="25" height="25" rx="15.5" ry="15.5" fill="#0e0037"></rect><path fill="#19e1c5" transform="translate(12 12)" d="M14,7.5c0,3.5899-2.9101,6.5-6.5,6.5S1,11.0899,1,7.5S3.9101,1,7.5,1S14,3.9101,14,7.5z" style="stroke-linejoin:round;stroke-miterlimit:4;" stroke="#19e1c5" stroke-width="6"></path><path fill="#0e0037" transform="translate(12 12)" d="M14,7.5c0,3.5899-2.9101,6.5-6.5,6.5S1,11.0899,1,7.5S3.9101,1,7.5,1S14,3.9101,14,7.5z"></path></svg>