<?xml version="1.0" encoding="UTF-8" standalone="no"?>
<!DOCTYPE svg PUBLIC "-//W3C//DTD SVG 1.1//EN" "http://www.w3.org/Graphics/SVG/1.1/DTD/svg11.dtd">
<svg version="1.1" xmlns="http://www.w3.org/2000/svg" xmlns:xlink="http://www.w3.org/1999/xlink" preserveAspectRatio="xMidYMid meet" viewBox="116.26865671641792 95.37313432835822 223.1343283582089 223.1343283582089" width="223.13" height="223.13"><defs><path d="M339.4 206.94C339.4 268.52 289.41 318.51 227.84 318.51C166.26 318.51 116.27 268.52 116.27 206.94C116.27 145.36 166.26 95.37 227.84 95.37C289.41 95.37 339.4 145.36 339.4 206.94Z" id="c2HQkQbVJV"></path><clipPath id="clipcqhodYqYK"><use xlink:href="#c2HQkQbVJV" opacity="1"></use></clipPath><path d="M296.12 206.94C296.12 244.63 265.52 275.22 227.84 275.22C190.15 275.22 159.55 244.63 159.55 206.94C159.55 169.25 190.15 138.66 227.84 138.66C265.52 138.66 296.12 169.25 296.12 206.94Z" id="a1ixfDhMd7"></path><path d="M274.1 206.94C274.1 232.48 253.37 253.21 227.84 253.21C202.3 253.21 181.57 232.48 181.57 206.94C181.57 181.4 202.3 160.67 227.84 160.67C253.37 160.67 274.1 181.4 274.1 206.94Z" id="caIFZN9PJ"></path></defs><g><g><g><g><filter id="shadow5188991" x="107.27" y="86.37" width="242.13" height="242.13" filterUnits="userSpaceOnUse" primitiveUnits="userSpaceOnUse"><feFlood></feFlood><feComposite in2="SourceAlpha" operator="in"></feComposite><feGaussianBlur stdDeviation="1"></feGaussianBlur><feOffset dx="1" dy="1" result="afterOffset"></feOffset><feFlood flood-color="#000000" flood-opacity="0.5"></feFlood><feComposite in2="afterOffset" operator="in"></feComposite><feMorphology operator="dilate" radius="1"></feMorphology><feComposite in2="SourceAlpha" operator="out"></feComposite></filter><path d="M339.4 206.94C339.4 268.52 289.41 318.51 227.84 318.51C166.26 318.51 116.27 268.52 116.27 206.94C116.27 145.36 166.26 95.37 227.84 95.37C289.41 95.37 339.4 145.36 339.4 206.94Z" id="apz7SRXlk" fill="white" fill-opacity="1" filter="url(#shadow5188991)"></path></g><use xlink:href="#c2HQkQbVJV" opacity="1" fill="#0f0038" fill-opacity="1"></use><g clip-path="url(#clipcqhodYqYK)"><use xlink:href="#c2HQkQbVJV" opacity="1" fill-opacity="0" stroke="#ffffff" stroke-width="10" stroke-opacity="1"></use></g></g><g><use xlink:href="#a1ixfDhMd7" opacity="1" fill="#1adec3" fill-opacity="1"></use></g><g><use xlink:href="#caIFZN9PJ" opacity="1" fill="#0f0038" fill-opacity="1"></use></g></g></g></svg>